<?xml version="1.0" standalone="no"?>
<!DOCTYPE svg PUBLIC "-//W3C//DTD SVG 20010904//EN"
 "http://www.w3.org/TR/2001/REC-SVG-20010904/DTD/svg10.dtd">
<svg version="1.0" xmlns="http://www.w3.org/2000/svg"
 width="155.000000pt" height="153.000000pt" viewBox="0 0 155.000000 153.000000"
 preserveAspectRatio="xMidYMid meet">

<g transform="translate(0.000000,153.000000) scale(0.100000,-0.100000)"
fill="#000000" stroke="none">
<path d="M620 1515 c-235 -52 -435 -205 -535 -409 -64 -130 -80 -197 -80 -341
0 -144 16 -211 82 -345 40 -81 60 -109 142 -191 82 -81 110 -102 191 -142 138
-67 200 -81 355 -81 155 0 217 14 355 81 81 40 109 61 190 142 106 106 158
192 202 331 33 108 33 302 0 410 -44 139 -96 225 -202 331 -81 81 -109 102
-190 142 -52 25 -122 53 -155 62 -85 23 -274 28 -355 10z m322 -104 c172 -44
319 -150 411 -298 15 -24 27 -45 27 -49 0 -3 -23 15 -51 40 -112 101 -275 167
-417 169 l-83 2 -25 -59 c-13 -33 -24 -61 -24 -63 0 -2 27 -3 60 -3 77 0 163
-18 157 -33 -106 -262 -109 -269 -136 -263 -14 3 -64 9 -111 12 l-85 7 -17
-45 -16 -45 86 -6 c144 -8 139 0 78 -152 -48 -119 -54 -130 -77 -128 -13 1
-63 5 -111 9 l-87 7 -16 -38 c-34 -84 -36 -81 52 -82 99 -1 188 -23 276 -71
76 -40 213 -160 200 -173 -21 -21 -170 -49 -258 -49 -205 0 -391 86 -522 242
-29 34 -53 65 -53 69 0 4 25 10 56 14 54 6 56 8 75 52 11 25 18 48 16 50 -2 2
-29 1 -60 -3 -54 -6 -56 -8 -75 -51 l-19 -45 -17 23 c-15 22 -15 25 3 39 18
14 41 59 41 81 0 5 -21 8 -47 6 l-48 -2 -13 50 c-21 81 -10 263 21 353 34 95
84 177 151 245 48 49 146 125 146 114 0 -3 -7 -21 -15 -40 -8 -20 -15 -39 -15
-42 0 -3 22 -5 49 -5 48 0 49 1 65 40 9 22 16 43 16 45 0 3 -21 5 -47 5 l-48
1 49 25 c121 63 313 82 458 45z m223 -347 c22 -13 53 -34 68 -47 l28 -24 -56
-141 -57 -142 -35 30 c-19 17 -60 42 -90 55 -39 18 -54 29 -50 40 4 8 29 71
58 140 57 140 53 137 134 89z m271 -150 c22 -103 16 -263 -15 -354 -49 -144
-161 -285 -285 -359 -31 -19 -58 -32 -60 -30 -5 7 327 819 335 819 4 0 15 -34
25 -76z m-431 -210 c30 -15 66 -39 80 -54 l27 -28 -53 -133 c-28 -74 -53 -136
-55 -138 -2 -2 -18 9 -35 23 -18 15 -58 40 -90 57 l-58 29 54 132 c30 72 55
133 55 135 0 9 27 0 75 -23z"/>
<path d="M537 1278 c-3 -7 -12 -30 -21 -50 l-16 -38 59 0 58 0 21 50 21 50
-58 0 c-38 0 -61 -5 -64 -12z"/>
<path d="M689 1270 c-16 -9 -55 -97 -47 -105 2 -2 30 -1 61 2 61 6 68 13 97
88 9 25 9 25 -43 25 -28 0 -59 -5 -68 -10z"/>
<path d="M325 1209 c-4 -6 -5 -12 -2 -15 2 -3 7 2 10 11 7 17 1 20 -8 4z"/>
<path d="M406 1131 c-3 -4 6 -6 19 -3 14 2 25 6 25 8 0 8 -39 4 -44 -5z"/>
<path d="M165 970 c-21 -40 -20 -40 25 -40 34 0 42 4 50 26 15 39 13 44 -25
44 -28 0 -37 -5 -50 -30z"/>
<path d="M261 918 c-10 -24 -17 -45 -16 -48 2 -3 25 -3 52 -2 48 4 50 5 66 48
l16 44 -50 0 c-49 0 -50 -1 -68 -42z"/>
<path d="M399 903 c-15 -4 -56 -89 -47 -98 2 -2 29 -1 60 2 55 5 57 7 72 47 9
23 16 45 16 49 0 7 -73 8 -101 0z"/>
<path d="M584 892 l-62 -3 -20 -52 -19 -52 40 -3 c68 -5 86 4 108 55 11 25 18
49 17 52 -2 3 -31 5 -64 3z"/>
<path d="M401 501 c-30 -5 -37 -13 -54 -54 -11 -26 -17 -50 -14 -53 3 -3 32
-2 64 1 l60 7 16 47 c10 25 17 49 17 54 0 8 -38 7 -89 -2z"/>
</g>
</svg>
